<svg id="visual" viewBox="0 0 600 900" width="600" height="900" xmlns="http://www.w3.org/2000/svg" xmlns:xlink="http://www.w3.org/1999/xlink" version="1.1"><g><g transform="translate(342 708)"><path d="M99.8 -122.1C126.2 -96.9 142.2 -62.4 141.2 -30.5C140.3 1.5 122.3 30.8 104.9 60.3C87.6 89.8 70.9 119.3 45.8 130.4C20.7 141.5 -12.7 134.2 -43.8 122.1C-74.9 110.1 -103.6 93.2 -116.1 68.5C-128.5 43.8 -124.7 11.2 -117.3 -18.9C-109.8 -49 -98.7 -76.7 -78.6 -103C-58.4 -129.4 -29.2 -154.4 3.8 -158.9C36.7 -163.4 73.5 -147.4 99.8 -122.1Z" fill="#d4d4fd"></path></g><g transform="translate(411 193)"><path d="M37 -45.5C47.5 -35.4 55.2 -23.2 61.2 -8C67.1 7.1 71.3 25.4 66.2 41.9C61 58.4 46.5 73.2 28.8 80C11.1 86.8 -9.8 85.6 -28.5 78.6C-47.2 71.7 -63.7 59 -71.6 42.7C-79.5 26.3 -78.7 6.3 -74.3 -12.1C-69.8 -30.5 -61.7 -47.2 -48.7 -56.8C-35.7 -66.5 -17.9 -69.1 -2.3 -66.4C13.3 -63.7 26.6 -55.6 37 -45.5Z" fill="#d4d4fd"></path></g><g transform="translate(48 405)"><path d="M59.5 -72.2C74 -58.6 80.8 -37 86.6 -13.8C92.4 9.4 97.4 34.3 88.2 51.4C78.9 68.6 55.3 78 32.5 83.9C9.7 89.9 -12.4 92.4 -34.8 87.6C-57.1 82.9 -79.7 71 -92.1 52C-104.5 33 -106.6 6.9 -100.1 -15.4C-93.5 -37.7 -78.1 -56.2 -60 -69.2C-41.8 -82.1 -20.9 -89.4 0.8 -90.3C22.4 -91.2 44.9 -85.7 59.5 -72.2Z" fill="#d4d4fd"></path></g></g></svg>