<svg id="visual" viewBox="0 0 600 900" width="600" height="900" xmlns="http://www.w3.org/2000/svg" xmlns:xlink="http://www.w3.org/1999/xlink" version="1.1"><g><g transform="translate(189 746)"><path d="M79 -95.4C102.8 -74.1 122.9 -49.7 129.5 -21.5C136.2 6.7 129.2 38.7 114 66.5C98.7 94.3 75.2 118 44 136C12.8 153.9 -26 166.1 -60.6 157.4C-95.1 148.7 -125.3 119.2 -145.4 84.1C-165.5 48.9 -175.5 8.1 -163.1 -22.9C-150.6 -53.9 -115.7 -75.1 -84.8 -95.1C-53.8 -115.2 -26.9 -134.2 0.3 -134.6C27.6 -135 55.1 -116.8 79 -95.4Z" fill="#d4d4fd"></path></g><g transform="translate(18 345)"><path d="M65.2 -80.5C78.4 -66.6 78.9 -40.3 82.4 -15.2C86 9.8 92.7 33.6 85.9 53.6C79.2 73.7 58.9 89.9 37.1 94.8C15.2 99.7 -8.2 93.2 -30.6 84.7C-53 76.3 -74.4 65.8 -86.1 48.4C-97.7 30.9 -99.6 6.5 -93.4 -14.3C-87.1 -35.1 -72.7 -52.3 -55.8 -65.6C-38.9 -78.9 -19.4 -88.3 3.3 -92.2C26 -96.1 51.9 -94.4 65.2 -80.5Z" fill="#d4d4fd"></path></g><g transform="translate(444 340)"><path d="M110 -123.6C140.4 -105.5 161.6 -68.9 160.4 -34.4C159.1 0 135.3 32.2 114.1 63C92.9 93.8 74.2 123.2 48.7 131.6C23.1 140 -9.3 127.4 -39.8 114.1C-70.2 100.9 -98.6 87.1 -122.2 62.6C-145.8 38.1 -164.6 2.9 -163.4 -33.2C-162.3 -69.3 -141.3 -106.3 -110.7 -124.4C-80.2 -142.4 -40.1 -141.6 -0.2 -141.4C39.7 -141.2 79.5 -141.6 110 -123.6Z" fill="#d4d4fd"></path></g></g></svg>