<svg id="visual" viewBox="0 0 600 900" width="600" height="900" xmlns="http://www.w3.org/2000/svg" xmlns:xlink="http://www.w3.org/1999/xlink" version="1.1"><g><g transform="translate(45 13)"><path d="M109 -128.5C139.5 -104.2 161.3 -68.3 163.7 -32.2C166 3.8 148.9 39.9 126.7 68.3C104.5 96.6 77.3 117.1 48.2 124.2C19 131.2 -12.1 124.9 -42.2 114.5C-72.4 104.2 -101.6 89.9 -114.5 66.6C-127.5 43.3 -124.1 11 -121.2 -24.2C-118.3 -59.3 -115.9 -97.3 -95.8 -123.4C-75.7 -149.6 -37.9 -163.8 0.7 -164.6C39.2 -165.4 78.4 -152.8 109 -128.5Z" fill="#acaced"></path></g><g transform="translate(359 332)"><path d="M87.7 -102.3C113.1 -83.2 132.9 -55 139.6 -23.6C146.4 7.8 140.1 42.5 121.3 65.5C102.6 88.4 71.5 99.6 39.8 112.6C8.1 125.5 -24.2 140.3 -53.2 134.7C-82.2 129.1 -107.9 103.1 -119.3 73.6C-130.7 44.1 -127.7 11 -119.1 -18C-110.4 -47.1 -96.1 -72.2 -75.3 -92.2C-54.5 -112.1 -27.2 -126.9 1.9 -129.2C31.1 -131.6 62.3 -121.4 87.7 -102.3Z" fill="#acaced"></path></g><g transform="translate(76 654)"><path d="M63.6 -74.7C84.6 -58.1 105.3 -40.2 114.5 -16.1C123.6 8 121.1 38.2 108.4 64.8C95.7 91.4 72.8 114.3 44.9 125.5C16.9 136.7 -16.2 136.1 -42.9 123.8C-69.5 111.5 -89.7 87.5 -100.9 61.5C-112 35.5 -114.2 7.5 -111.4 -21.6C-108.6 -50.8 -101 -81 -81.6 -97.9C-62.2 -114.7 -31.1 -118.2 -4.9 -112.3C21.3 -106.4 42.5 -91.2 63.6 -74.7Z" fill="#acaced"></path></g></g></svg>

