<svg id="visual" viewBox="0 0 600 900" width="600" height="900" xmlns="http://www.w3.org/2000/svg" xmlns:xlink="http://www.w3.org/1999/xlink" version="1.1"><g><g transform="translate(478 521)"><path d="M79.1 -87.6C106.6 -71.1 136 -50.1 142.9 -23.3C149.9 3.5 134.6 36.2 114.4 61.2C94.2 86.3 69.1 103.7 39.9 118.1C10.6 132.4 -22.9 143.7 -51.2 135.6C-79.5 127.5 -102.7 100.1 -119.3 69.7C-135.9 39.3 -145.9 5.9 -140.5 -24.8C-135.2 -55.5 -114.4 -83.5 -88.4 -100.3C-62.4 -117.1 -31.2 -122.6 -2.7 -119.4C25.8 -116.1 51.5 -104.1 79.1 -87.6Z" fill="#d4d4fd"></path></g><g transform="translate(392 92)"><path d="M53.5 -61.7C69.2 -50.6 81.6 -33.6 87.9 -13.2C94.2 7.1 94.2 30.8 84.4 49.7C74.6 68.5 54.9 82.6 33.7 88.6C12.5 94.6 -10.2 92.6 -29.3 84.1C-48.4 75.6 -63.9 60.7 -79.7 41.9C-95.6 23 -111.7 0.2 -107.8 -18.5C-103.9 -37.2 -79.8 -51.8 -58.5 -62C-37.2 -72.1 -18.6 -77.8 0.2 -78C18.9 -78.2 37.8 -72.9 53.5 -61.7Z" fill="#d4d4fd"></path></g><g transform="translate(10 564)"><path d="M48.5 -54.3C66.2 -43.1 86 -30.9 89.1 -15.4C92.3 0.1 78.8 18.9 66.2 35.8C53.6 52.7 41.8 67.7 25.5 76.5C9.1 85.3 -11.9 87.9 -28.1 80.6C-44.3 73.3 -55.8 56 -65.9 38.2C-76 20.3 -84.9 1.9 -84.7 -17.7C-84.6 -37.3 -75.3 -58 -59.7 -69.6C-44 -81.2 -22 -83.7 -3.3 -79.8C15.5 -75.9 30.9 -65.6 48.5 -54.3Z" fill="#d4d4fd"></path></g></g></svg>