<svg id="visual" viewBox="0 0 900 540" width="900" height="540" xmlns="http://www.w3.org/2000/svg" xmlns:xlink="http://www.w3.org/1999/xlink" version="1.1"><g><g transform="translate(9 35)"><path d="M106.5 -107.8C130.8 -82.3 138.1 -41.1 132.4 -5.7C126.7 29.7 107.9 59.4 83.6 86C59.4 112.7 29.7 136.3 -5.3 141.6C-40.3 146.9 -80.5 133.8 -103.1 107.2C-125.6 80.5 -130.5 40.3 -126.1 4.4C-121.8 -31.5 -108.2 -63.1 -85.7 -88.6C-63.1 -114.1 -31.5 -133.5 4.8 -138.3C41.1 -143.1 82.3 -133.3 106.5 -107.8Z" fill="#acaced"></path></g><g transform="translate(621 402)"><path d="M103.9 -100.1C129 -78.8 139.8 -39.4 136 -3.8C132.2 31.8 113.8 63.6 88.7 86.4C63.6 109.2 31.8 123 0.7 122.3C-30.4 121.5 -60.7 106.3 -87.7 83.5C-114.8 60.7 -138.4 30.4 -141.5 -3C-144.5 -36.4 -126.9 -72.8 -99.9 -94.2C-72.8 -115.5 -36.4 -121.7 1.5 -123.2C39.4 -124.7 78.8 -121.5 103.9 -100.1Z" fill="#acaced"></path></g><g transform="translate(840 63)"><path d="M78.3 -80.8C97.5 -59 106.5 -29.5 105.4 -1.1C104.4 27.4 93.3 54.8 74 80.6C54.8 106.5 27.4 130.8 0.7 130.1C-25.9 129.3 -51.8 103.5 -75.8 77.6C-99.8 51.8 -121.8 25.9 -127.5 -5.6C-133.1 -37.2 -122.3 -74.3 -98.3 -96.1C-74.3 -117.8 -37.2 -124.1 -3.8 -120.3C29.5 -116.5 59 -102.5 78.3 -80.8Z" fill="#acaced"></path></g></g></svg>