<svg id="visual" viewBox="0 0 600 900" width="600" height="900" xmlns="http://www.w3.org/2000/svg" xmlns:xlink="http://www.w3.org/1999/xlink" version="1.1"><g><g transform="translate(554 754)"><path d="M122.5 -145.9C156.1 -117.9 178.8 -76.7 190 -30.8C201.3 15 201.2 65.6 181 108.1C160.7 150.5 120.3 184.9 73.9 200.9C27.5 216.8 -24.8 214.3 -61.4 191.2C-97.9 168.1 -118.8 124.3 -140.4 83C-162 41.6 -184.3 2.6 -178.4 -31.5C-172.4 -65.5 -138.1 -94.6 -103.6 -122.5C-69.2 -150.4 -34.6 -177.2 5 -183.1C44.5 -189 89 -174 122.5 -145.9Z" fill="none" stroke="#d4d4fd" stroke-width="20"></path></g><g transform="translate(2 397)"><path d="M71.5 -91.2C86.5 -72.6 88.4 -44.3 93.6 -16.3C98.7 11.7 107.2 39.2 99.2 61.1C91.1 82.9 66.5 99 41 104.9C15.5 110.9 -10.9 106.8 -37.4 98.8C-63.8 90.9 -90.2 79.1 -101 59C-111.7 38.9 -106.9 10.5 -101 -17C-95.2 -44.4 -88.4 -70.8 -71.4 -89C-54.4 -107.3 -27.2 -117.3 0.5 -118C28.2 -118.6 56.5 -109.8 71.5 -91.2Z" fill="none" stroke="#d4d4fd" stroke-width="20"></path></g><g transform="translate(455 54)"><path d="M91.5 -109.6C113 -91 121.1 -56.9 120.3 -26.4C119.4 4.1 109.8 30.9 95.1 53.6C80.5 76.3 60.9 94.8 36.9 105.4C12.8 115.9 -15.6 118.3 -41.9 110.7C-68.3 103 -92.5 85.2 -109.1 60.9C-125.6 36.5 -134.5 5.6 -130.5 -24.1C-126.5 -53.7 -109.7 -82.2 -85.8 -100.4C-61.9 -118.6 -31 -126.4 2 -128.8C35 -131.2 70 -128.2 91.5 -109.6Z" fill="none" stroke="#d4d4fd" stroke-width="20"></path></g></g></svg>