<svg id="visual" viewBox="0 0 600 900" width="600" height="900" xmlns="http://www.w3.org/2000/svg" xmlns:xlink="http://www.w3.org/1999/xlink" version="1.1"><g><g transform="translate(475 566)"><path d="M126 -153.8C155 -125.8 164.5 -78.2 163.4 -36C162.2 6.2 150.2 43 133.8 82.6C117.3 122.3 96.4 164.7 60.7 185.9C25.1 207.1 -25.1 207.1 -69 190.7C-112.8 174.2 -150.2 141.3 -169 101.2C-187.8 61.1 -188 14 -180 -31.8C-172 -77.6 -155.8 -122 -124.5 -149.7C-93.1 -177.3 -46.6 -188.2 1 -189.3C48.5 -190.5 96.9 -181.9 126 -153.8Z" fill="#d4d4fd"></path></g><g transform="translate(423 63)"><path d="M87.3 -98.7C116.8 -79.2 147.1 -55.3 154.5 -25.4C162 4.5 146.8 40.2 124.9 66.5C103.1 92.8 74.5 109.6 41.4 127.7C8.3 145.8 -29.5 165.2 -63.6 159.4C-97.6 153.6 -128.1 122.6 -138.9 87.9C-149.6 53.3 -140.8 15 -133.3 -22.8C-125.8 -60.7 -119.8 -98.1 -97.8 -118.9C-75.8 -139.7 -37.9 -143.7 -4.5 -138.4C28.9 -133 57.8 -118.1 87.3 -98.7Z" fill="#d4d4fd"></path></g><g transform="translate(76 836)"><path d="M77.7 -90.3C100 -73.8 117.2 -48.7 122.2 -21.4C127.1 5.9 119.9 35.5 106.9 65.2C93.9 94.8 75 124.6 49.7 131.8C24.3 139 -7.6 123.7 -41 111.9C-74.3 100 -109.2 91.6 -130.5 68.6C-151.9 45.6 -159.8 8 -151.8 -24.9C-143.8 -57.9 -119.9 -86.2 -92 -101.8C-64 -117.4 -32 -120.2 -2.2 -117.6C27.6 -115 55.3 -106.9 77.7 -90.3Z" fill="#d4d4fd"></path></g></g></svg>