<svg id="visual" viewBox="0 0 600 900" width="600" height="900" xmlns="http://www.w3.org/2000/svg" xmlns:xlink="http://www.w3.org/1999/xlink" version="1.1"><g><g transform="translate(216 580)"><path d="M98.8 -116.5C123.7 -96.9 136.5 -61.6 143.5 -24.9C150.4 11.8 151.5 50 136.1 80.4C120.7 110.9 88.8 133.6 53.6 145.8C18.4 158 -20.2 159.7 -49.2 144.9C-78.2 130.1 -97.6 98.8 -112.6 67.6C-127.5 36.3 -138 5.1 -136.4 -27.5C-134.7 -60.1 -121.1 -94.1 -96.4 -113.7C-71.6 -133.3 -35.8 -138.6 0.6 -139.3C37 -140 73.9 -136.1 98.8 -116.5Z" fill="none" stroke="#d4d4fd" stroke-width="20"></path></g><g transform="translate(321 59)"><path d="M64.5 -69.6C86.8 -58.1 110.3 -40.9 115.4 -19.3C120.4 2.3 107.1 28.2 91.5 50.7C76 73.2 58.2 92.2 35 104C11.8 115.9 -16.8 120.4 -44 113.7C-71.2 106.9 -96.9 88.9 -106.7 65C-116.5 41.1 -110.3 11.4 -102.9 -16C-95.5 -43.3 -86.9 -68.3 -69.5 -80.6C-52.1 -92.9 -26.1 -92.5 -2.5 -89.5C21.1 -86.6 42.2 -81 64.5 -69.6Z" fill="none" stroke="#d4d4fd" stroke-width="20"></path></g><g transform="translate(554 780)"><path d="M56.5 -65.1C73.7 -52.8 88.7 -35.5 94.7 -14.8C100.6 6 97.6 30.3 86.3 49.9C75.1 69.5 55.6 84.5 33.9 91.8C12.2 99.1 -11.8 98.7 -31.5 90C-51.1 81.3 -66.5 64.3 -77.3 44.9C-88.1 25.6 -94.3 3.9 -90.3 -15.4C-86.3 -34.7 -72 -51.7 -55.2 -64.1C-38.4 -76.5 -19.2 -84.4 0.2 -84.6C19.6 -84.8 39.2 -77.4 56.5 -65.1Z" fill="none" stroke="#d4d4fd" stroke-width="20"></path></g></g></svg>