<svg id="visual" viewBox="0 0 600 900" width="600" height="900" xmlns="http://www.w3.org/2000/svg" xmlns:xlink="http://www.w3.org/1999/xlink" version="1.1"><g><g transform="translate(271 577)"><path d="M101.5 -114.9C135 -92.7 168.3 -64.1 182.8 -25.8C197.2 12.6 193 60.8 168.7 92.3C144.5 123.9 100.2 138.8 56.9 153.3C13.5 167.8 -28.9 181.9 -62 169.9C-95 158 -118.7 120.1 -131 83.2C-143.3 46.3 -144.3 10.3 -142.4 -29.4C-140.6 -69.2 -135.9 -112.8 -111.7 -136.6C-87.5 -160.4 -43.7 -164.4 -4.9 -158.6C33.9 -152.7 67.9 -137 101.5 -114.9Z" fill="none" stroke="#d4d4fd" stroke-width="14"></path></g><g transform="translate(595 96)"><path d="M71.1 -89C92.6 -66.6 110.9 -44.7 121.5 -16.7C132 11.3 134.9 45.5 120.3 68.2C105.7 91 73.5 102.4 42.3 111.7C11.1 121 -19.1 128.4 -49.7 123C-80.2 117.7 -111 99.8 -130.9 72.3C-150.8 44.7 -159.7 7.5 -152.9 -26.2C-146.1 -60 -123.6 -90.2 -95.5 -111.4C-67.4 -132.6 -33.7 -144.6 -4.5 -139.3C24.8 -134 49.6 -111.3 71.1 -89Z" stroke="#d4d4fd" fill="none" stroke-width="14"></path></g><g transform="translate(31 54)"><path d="M57.3 -70.7C76.3 -52.4 95.1 -36.2 101.9 -15.3C108.8 5.6 103.8 31.3 92 54.2C80.1 77.1 61.3 97.1 38.4 105.4C15.4 113.8 -11.8 110.5 -34.8 100.2C-57.8 89.8 -76.6 72.5 -84.9 52C-93.1 31.5 -90.7 8 -83.9 -12C-77.1 -32 -65.8 -48.5 -51 -67.5C-36.3 -86.5 -18.2 -108.1 0.5 -108.7C19.2 -109.3 38.3 -88.9 57.3 -70.7Z" stroke="#d4d4fd" fill="none" stroke-width="14"></path></g></g></svg>