<svg id="visual" viewBox="0 0 600 900" width="600" height="900" xmlns="http://www.w3.org/2000/svg" xmlns:xlink="http://www.w3.org/1999/xlink" version="1.1"><g><g transform="translate(465 403)"><path d="M101.4 -116.8C130.9 -96 154 -63.6 168.7 -23.4C183.4 16.9 189.7 65.1 169.1 94.6C148.4 124.1 100.8 135 55.8 149.8C10.9 164.6 -31.3 183.3 -73.7 178.3C-116.1 173.4 -158.6 144.7 -176.8 105.7C-195 66.7 -188.8 17.3 -176.9 -27.9C-165 -73 -147.4 -113.9 -117 -134.4C-86.6 -155 -43.3 -155.3 -3.7 -150.9C35.9 -146.5 71.9 -137.5 101.4 -116.8Z" fill="#d4d4fd"></path></g><g transform="translate(54 641)"><path d="M62.1 -74.8C81.8 -57.5 100.1 -39.2 107.2 -16.3C114.4 6.6 110.5 34.1 97.9 57.1C85.3 80.2 64 98.8 41.4 101.7C18.8 104.7 -5 92 -25.9 80.4C-46.7 68.8 -64.6 58.2 -76.1 42.1C-87.6 26 -92.8 4.4 -90.7 -17.5C-88.6 -39.3 -79.3 -61.4 -63 -79.4C-46.7 -97.3 -23.3 -111.2 -1.1 -109.9C21.2 -108.7 42.4 -92.2 62.1 -74.8Z" fill="#d4d4fd"></path></g><g transform="translate(99 93)"><path d="M89.9 -102.9C118 -83.6 143.2 -56.6 153.6 -23.3C163.9 10.1 159.5 49.8 139.9 77.8C120.2 105.8 85.3 122.1 50.8 130.8C16.4 139.5 -17.6 140.6 -43.2 127.5C-68.9 114.4 -86.1 87 -105.6 58.5C-125 29.9 -146.5 0.1 -145.9 -29.6C-145.3 -59.4 -122.6 -89.3 -94.6 -108.6C-66.6 -127.9 -33.3 -136.8 -1.2 -135.4C30.9 -134 61.8 -122.3 89.9 -102.9Z" fill="#d4d4fd"></path></g></g></svg>