<svg id="visual" viewBox="0 0 900 675" width="900" height="675" xmlns="http://www.w3.org/2000/svg" xmlns:xlink="http://www.w3.org/1999/xlink" version="1.1"><path d="M0 406L30 410.7C60 415.3 120 424.7 180 420.5C240 416.3 300 398.7 360 378C420 357.3 480 333.7 540 334.7C600 335.7 660 361.3 720 368C780 374.7 840 362.3 870 356.2L900 350L900 676L870 676C840 676 780 676 720 676C660 676 600 676 540 676C480 676 420 676 360 676C300 676 240 676 180 676C120 676 60 676 30 676L0 676Z" fill="#715DF2" stroke-linecap="round" stroke-linejoin="miter"></path></svg>