<svg id="visual" viewBox="0 0 900 450" width="900" height="450" xmlns="http://www.w3.org/2000/svg" xmlns:xlink="http://www.w3.org/1999/xlink" version="1.1"><path d="M0 225L18.8 234.2C37.7 243.3 75.3 261.7 112.8 271.3C150.3 281 187.7 282 225.2 276.5C262.7 271 300.3 259 337.8 248.3C375.3 237.7 412.7 228.3 450.2 228.5C487.7 228.7 525.3 238.3 562.8 249.3C600.3 260.3 637.7 272.7 675.2 277.3C712.7 282 750.3 279 787.8 270.2C825.3 261.3 862.7 246.7 881.3 239.3L900 232L900 451L881.3 451C862.7 451 825.3 451 787.8 451C750.3 451 712.7 451 675.2 451C637.7 451 600.3 451 562.8 451C525.3 451 487.7 451 450.2 451C412.7 451 375.3 451 337.8 451C300.3 451 262.7 451 225.2 451C187.7 451 150.3 451 112.8 451C75.3 451 37.7 451 18.8 451L0 451Z" fill="#8c7ee9" stroke-linecap="round" stroke-linejoin="miter"></path></svg>